# xmcd CD database file
#
# Track frame offsets:
#	150
#	17203
#	35663
#	55528
#	76393
#	95003
#	116170
#	143265
#	157985
#	173400
#	195560
#
# Disc length: 2792 seconds
#
# Revision: 6
# Processed by: cddbd v1.5.2PL0 Copyright (c) Steve Scherf et al.
# Submitted via: CDex 1.70beta2
#
DISCID=800ae60b
DTITLE=木住野佳子 - You Are So Beautiful
DYEAR=1999
DGENRE=Jazz
TTITLE0=Israel
TTITLE1=Tenderly
TTITLE2=Autumn Leaves
TTITLE3=The Days of Wine And Roses
TTITLE4=Waltz for Debby
TTITLE5=O Grande Amor
TTITLE6=Here, There And Everywhere
TTITLE7=April in Paris
TTITLE8=Here's That Rainy Day
TTITLE9=Easy To Love
TTITLE10=You Are So Beautiful
EXTD=YEAR: 1999
EXTT0=
EXTT1=
EXTT2=
EXTT3=
EXTT4=
EXTT5=
EXTT6=
EXTT7=
EXTT8=
EXTT9=
EXTT10=
PLAYORDER=
